<svg width="24" height="24" viewBox="0 0 24 24" fill="none" xmlns="http://www.w3.org/2000/svg">
  <rect width="24" height="24" rx="4" fill="#0F172A"/>
  <path d="M7 14C7 13.4477 7.44772 13 8 13H16C16.5523 13 17 13.4477 17 14C17 14.5523 16.5523 15 16 15H8C7.44772 15 7 14.5523 7 14Z" fill="#F59E0B"/>
  <path d="M6 10C6 9.44772 6.44772 9 7 9H17C17.5523 9 18 9.44772 18 10C18 10.5523 17.5523 11 17 11H7C6.44772 11 6 10.5523 6 10Z" fill="#3B82F6"/>
  <path d="M9 18C9 17.4477 9.44772 17 10 17H14C14.5523 17 15 17.4477 15 18C15 18.5523 14.5523 19 14 19H10C9.44772 19 9 18.5523 9 18Z" fill="#F59E0B"/>
  <path d="M8 6C8 5.44772 8.44772 5 9 5H15C15.5523 5 16 5.44772 16 6C16 6.55228 15.5523 7 15 7H9C8.44772 7 8 6.55228 8 6Z" fill="#3B82F6"/>
</svg>